<svg width="409" height="35" viewBox="0 0 409 35" fill="none" xmlns="http://www.w3.org/2000/svg">
<path d="M26.4219 35H18.1719L10.2969 20.75L7.57812 22.7656V35H0.3125V0.734375H7.57812V17.2344L10.4375 12.3828L18.2656 0.734375H26.3281L15.3828 16.1797L26.4219 35ZM50.4688 35H30.7344V0.734375H50.4688V6.6875H38V14.2109H49.6016V20.1641H38V29H50.4688V35ZM75.2656 0.734375H82.6016L71.9141 35H63.9922L53.3281 0.734375H60.6641L66.4766 21.3594C66.5547 21.625 66.6562 22.0703 66.7812 22.6953C66.9219 23.3203 67.0625 24.0078 67.2031 24.7578C67.3594 25.5078 67.5078 26.2578 67.6484 27.0078C67.7891 27.7578 67.8984 28.3906 67.9766 28.9062C68.0547 28.3906 68.1641 27.7578 68.3047 27.0078C68.4453 26.2578 68.5938 25.5156 68.75 24.7812C68.9062 24.0312 69.0547 23.3438 69.1953 22.7188C69.3516 22.0938 69.4688 21.6406 69.5469 21.3594L75.2656 0.734375ZM99.7578 35H84.1719V30.875L88.3438 28.9531V6.78125L84.1719 4.85938V0.734375H99.7578V4.85938L95.5859 6.78125V28.9531L99.7578 30.875V35ZM134.586 35H125.375L111.898 9.07812H111.688C111.781 10.2812 111.859 11.4766 111.922 12.6641C111.984 13.6797 112.031 14.75 112.062 15.875C112.109 16.9844 112.133 17.9844 112.133 18.875V35H105.641V0.734375H114.805L128.258 26.3984H128.398C128.352 25.2109 128.297 24.0391 128.234 22.8828C128.219 22.3828 128.195 21.875 128.164 21.3594C128.148 20.8281 128.133 20.3047 128.117 19.7891C128.102 19.2578 128.086 18.75 128.07 18.2656C128.07 17.7812 128.07 17.3438 128.07 16.9531V0.734375H134.586V35ZM173.328 0.734375H180.664L169.977 35H162.055L151.391 0.734375H158.727L164.539 21.3594C164.617 21.625 164.719 22.0703 164.844 22.6953C164.984 23.3203 165.125 24.0078 165.266 24.7578C165.422 25.5078 165.57 26.2578 165.711 27.0078C165.852 27.7578 165.961 28.3906 166.039 28.9062C166.117 28.3906 166.227 27.7578 166.367 27.0078C166.508 26.2578 166.656 25.5156 166.812 24.7812C166.969 24.0312 167.117 23.3438 167.258 22.7188C167.414 22.0938 167.531 21.6406 167.609 21.3594L173.328 0.734375ZM203.094 35L200.75 26.8438H188.938L186.57 35H179.234L190.367 0.59375H199.25L210.43 35H203.094ZM199.062 20.75L196.859 13.25C196.766 12.9688 196.625 12.5078 196.438 11.8672C196.25 11.2266 196.047 10.5234 195.828 9.75781C195.625 8.97656 195.43 8.19531 195.242 7.41406C195.055 6.63281 194.922 5.96875 194.844 5.42188C194.781 5.76563 194.695 6.17188 194.586 6.64062C194.492 7.10938 194.375 7.60938 194.234 8.14062C194.109 8.65625 193.977 9.17969 193.836 9.71094C193.695 10.2422 193.562 10.7422 193.438 11.2109C193.312 11.6797 193.195 12.0938 193.086 12.4531C192.992 12.8125 192.922 13.0781 192.875 13.25L190.695 20.75H199.062ZM243.711 35H234.5L221.023 9.07812H220.812C220.906 10.2812 220.984 11.4766 221.047 12.6641C221.109 13.6797 221.156 14.75 221.188 15.875C221.234 16.9844 221.258 17.9844 221.258 18.875V35H214.766V0.734375H223.93L237.383 26.3984H237.523C237.477 25.2109 237.422 24.0391 237.359 22.8828C237.344 22.3828 237.32 21.875 237.289 21.3594C237.273 20.8281 237.258 20.3047 237.242 19.7891C237.227 19.2578 237.211 18.75 237.195 18.2656C237.195 17.7812 237.195 17.3438 237.195 16.9531V0.734375H243.711V35ZM278.867 17.5391C278.867 20.4297 278.469 22.9688 277.672 25.1562C276.891 27.3281 275.75 29.1484 274.25 30.6172C272.766 32.0703 270.938 33.1641 268.766 33.8984C266.609 34.6328 264.148 35 261.383 35H252.359V0.734375H262.391C264.906 0.734375 267.172 1.09375 269.188 1.8125C271.219 2.53125 272.953 3.60156 274.391 5.02344C275.828 6.42969 276.93 8.17969 277.695 10.2734C278.477 12.3672 278.867 14.7891 278.867 17.5391ZM271.508 17.7266C271.508 15.8203 271.312 14.1797 270.922 12.8047C270.547 11.4141 269.992 10.2656 269.258 9.35938C268.539 8.45312 267.648 7.78125 266.586 7.34375C265.539 6.90625 264.336 6.6875 262.977 6.6875H259.625V29H262.297C265.359 29 267.656 28.0625 269.188 26.1875C270.734 24.3125 271.508 21.4922 271.508 17.7266ZM305.703 35H285.969V0.734375H305.703V6.6875H293.234V14.2109H304.836V20.1641H293.234V29H305.703V35ZM320.141 15.9453H322.109C324.125 15.9453 325.57 15.5469 326.445 14.75C327.32 13.9375 327.758 12.75 327.758 11.1875C327.758 9.5625 327.289 8.40625 326.352 7.71875C325.414 7.03125 323.961 6.6875 321.992 6.6875H320.141V15.9453ZM320.141 21.8516V35H312.875V0.734375H322.25C326.641 0.734375 329.883 1.58594 331.977 3.28906C334.07 4.97656 335.117 7.54688 335.117 11C335.117 12.1719 334.961 13.2344 334.648 14.1875C334.336 15.1406 333.914 15.9922 333.383 16.7422C332.867 17.4766 332.266 18.125 331.578 18.6875C330.906 19.2344 330.195 19.6953 329.445 20.0703C331.18 22.8516 332.734 25.3359 334.109 27.5234C334.703 28.4609 335.273 29.375 335.82 30.2656C336.383 31.1562 336.883 31.9531 337.32 32.6562C337.758 33.3594 338.117 33.9219 338.398 34.3438L338.797 35H330.734L323.305 21.8516H320.141ZM343.109 35V0.734375H350.375V29H362.844V35H343.109ZM388.531 35H368.797V0.734375H388.531V6.6875H376.062V14.2109H387.664V20.1641H376.062V29H388.531V35ZM408.523 35H392.938V30.875L397.109 28.9531V6.78125L392.938 4.85938V0.734375H408.523V4.85938L404.352 6.78125V28.9531L408.523 30.875V35Z" fill="#FF8C00"/>
</svg>